# xmcd
#
# Track frame offsets:
#	150
#	24359
#	36150
#	51846
#	70261
#	92854
#	101060
#	111751
#	122803
#	139579
#	154642
#	175715
#	189756
#	213867
#
# Disc length: 3104 seconds
#
# Revision: 0
# Processed by: cddbd v1.5.2PL0 Copyright (c) Steve Scherf et al.
# Submitted via: audiograbber 1.82.02
#
DISCID=b50c1e0e
DTITLE=Лига Блюза - Long Live R'n'B
DYEAR=1991
DGENRE=Blues
TTITLE0=Развяжи мне руки
TTITLE1=Ей нужен герой
TTITLE2=Лентяй
TTITLE3=Ваша дочь
TTITLE4=Ночной пловец
TTITLE5=Mercedes Benz
TTITLE6=True Fine Mama
TTITLE7=Parchman Farm
TTITLE8=Pain In My Heart
TTITLE9=Walking The Dog
TTITLE10=Hoochie Coochie Man
TTITLE11=Little Wing
TTITLE12=Angel
TTITLE13=Rock'n'Roll Hoochie-Koo
EXTD=Vinyl Rip\n
EXTT0=
EXTT1=
EXTT2=
EXTT3=
EXTT4=
EXTT5=
EXTT6=
EXTT7=
EXTT8=
EXTT9=
EXTT10=
EXTT11=
EXTT12=
EXTT13=
PLAYORDER=
